<svg version="1.1" id="Layer_1" xmlns="http://www.w3.org/2000/svg" xmlns:xlink="http://www.w3.org/1999/xlink" x="0px" y="0px"
	 width="100%" viewBox="0 0 880 864" enable-background="new 0 0 880 864" xml:space="preserve">
<path fill="#000000" opacity="1.000000" stroke="none" 
	d="
M223.147156,490.673096 
	C365.389954,490.652893 507.148560,490.664185 648.906982,490.530701 
	C653.841919,490.526062 655.692505,491.705536 655.458313,496.900543 
	C655.053650,505.877258 655.094788,514.894836 655.440674,523.876343 
	C655.629822,528.787292 654.305603,530.545227 649.086121,530.468384 
	C629.767456,530.184204 610.441711,530.393250 591.118652,530.392395 
	C470.880768,530.386841 350.642883,530.374390 230.405014,530.364929 
	C218.664642,530.364014 218.662369,530.366089 218.663864,518.378540 
	C218.664841,510.549347 218.738464,502.719421 218.645111,494.891388 
	C218.610611,491.998138 219.590576,490.433655 223.147156,490.673096 
M400.180756,503.802368 
	C395.919891,510.723755 400.506897,518.884399 406.974213,521.303284 
	C413.186310,523.626709 419.385590,523.435364 425.249817,520.245789 
	C433.063080,515.996277 433.673584,505.142548 426.517487,499.850433 
	C418.604401,493.998627 406.833771,495.512604 400.180756,503.802368 
M555.344360,507.567108 
	C555.340820,510.726440 555.422302,513.888855 555.308655,517.044189 
	C555.205505,519.906982 555.678894,521.895996 559.283997,521.797607 
	C562.418030,521.712097 565.025330,521.553101 564.737366,517.368652 
	C564.635193,515.884766 564.763184,514.256958 566.781433,513.931946 
	C568.429077,513.666626 569.733826,514.373901 570.691895,515.629272 
	C571.696655,516.945862 572.423645,518.492615 573.517883,519.719421 
	C576.957397,523.575256 580.908875,523.541260 584.451355,519.601746 
	C582.470093,517.198120 578.618469,516.206787 578.427551,512.234863 
	C581.165527,509.714081 584.975952,507.632294 583.087952,502.874664 
	C581.231812,498.197144 577.104309,497.555054 572.814148,497.396301 
	C570.156982,497.297974 567.493713,497.340973 564.833374,497.357330 
	C554.365967,497.421753 555.411804,496.296844 555.344360,507.567108 
M364.996765,500.678162 
	C365.032593,504.049438 364.329559,506.332947 360.014313,506.319580 
	C355.829651,506.306610 354.275208,504.806702 354.630463,500.743469 
	C354.942078,497.179840 352.333893,497.401001 349.916656,497.352051 
	C347.283447,497.298676 345.283325,497.744110 345.318481,501.051605 
	C345.378662,506.714417 345.402893,512.380676 345.266876,518.041321 
	C345.186493,521.387878 347.110046,521.801575 349.758789,521.778503 
	C352.500641,521.754639 354.954529,521.530090 354.638062,517.873047 
	C354.317413,514.167542 355.562836,512.435669 359.642975,512.475952 
	C363.420410,512.513306 365.342499,513.600342 365.000336,517.594238 
	C364.714050,520.935669 366.541199,521.821655 369.601715,521.819641 
	C372.796448,521.817505 374.161957,520.571167 374.097046,517.383545 
	C373.991852,512.221619 374.074402,507.056091 374.019043,501.892731 
	C373.999756,500.093750 374.243958,497.756042 371.757416,497.588531 
	C369.381805,497.428497 366.220245,495.966309 364.996765,500.678162 
M296.169037,520.493347 
	C307.898743,525.265808 319.482391,521.584595 320.034393,512.837769 
	C316.551056,511.630096 313.539978,510.685272 310.182800,514.142944 
	C307.647583,516.754028 303.563080,516.582336 300.658417,513.779724 
	C298.180969,511.389313 298.003510,508.227814 300.360901,505.687744 
	C303.011658,502.831573 306.221771,502.930511 309.297272,505.351562 
	C312.557098,507.917786 315.366028,506.058868 318.414978,504.748627 
	C316.497559,498.959808 311.697296,497.636810 307.009918,496.588531 
	C300.747375,495.187958 292.797729,499.239807 290.613770,504.495819 
	C288.047028,510.673035 289.613586,515.661316 296.169037,520.493347 
M253.879700,512.869507 
	C255.058533,513.390259 256.506348,513.648010 256.399353,515.638367 
	C253.014587,518.451111 249.344131,516.852478 246.177521,515.472778 
	C242.620148,513.922852 241.035034,515.280579 239.305130,518.253296 
	C244.420837,523.218079 250.528000,523.251160 256.646729,522.315552 
	C262.616486,521.402771 266.604950,517.596863 266.369080,513.829773 
	C266.145233,510.254395 262.203461,507.374908 256.210083,506.497772 
	C254.732758,506.281555 253.210190,506.373993 251.733215,506.156281 
	C250.305862,505.945831 248.696121,505.829651 248.295761,503.669312 
	C250.913956,500.740784 254.026688,501.870300 256.895020,502.970642 
	C260.020508,504.169739 261.861481,503.286163 263.141876,500.445251 
	C256.991486,495.482727 247.988327,495.011017 242.089615,499.180725 
	C237.211060,502.629303 237.549622,507.986328 242.911682,510.638672 
	C246.088165,512.209900 249.559387,512.701782 253.879700,512.869507 
M610.409424,519.669800 
	C616.335144,523.369141 622.660461,523.549622 629.094910,521.494751 
	C632.788330,520.315186 635.699890,518.040344 635.566223,513.677856 
	C635.440735,509.583618 632.366577,508.133362 628.973328,507.313812 
	C626.890381,506.810699 624.738159,506.588074 622.612549,506.269623 
	C620.870789,506.008667 618.906921,506.207581 618.034485,503.800415 
	C620.413574,500.858643 623.356934,501.756622 626.112427,502.760406 
	C628.995911,503.810791 631.237061,503.756714 632.625000,500.644806 
	C627.056702,495.168915 616.068787,494.920685 610.767517,500.043030 
	C607.024109,503.660095 607.718811,508.223602 612.457825,510.516785 
	C615.168030,511.828278 618.076111,512.464600 621.109680,512.626221 
	C623.023560,512.728149 625.157227,512.684326 625.978943,515.080994 
	C622.454163,517.669861 622.454163,517.669861 615.008911,515.250671 
	C611.589783,514.139648 609.652649,515.666748 610.409424,519.669800 
M515.510132,497.353210 
	C513.311707,497.604279 510.518555,496.461060 509.308105,499.282196 
	C506.251617,506.406006 503.385559,513.611572 500.268341,521.210571 
	C504.606842,521.738342 507.981506,522.915039 510.855804,519.099548 
	C512.559753,516.837646 519.296997,517.129089 520.862244,519.374573 
	C523.746460,523.512268 527.015991,521.562134 530.995605,520.975586 
	C528.373169,514.361877 525.809021,508.427307 523.684326,502.339447 
	C522.388916,498.627777 520.344299,496.747650 515.510132,497.353210 
M462.131256,497.371002 
	C457.747437,496.725403 455.437622,498.217194 456.173706,503.021881 
	C456.347504,504.156250 456.208618,505.339081 456.207062,506.499634 
	C456.185333,522.624146 456.184052,522.604004 472.481689,521.791687 
	C474.816101,521.675354 476.800415,521.547485 476.780334,518.406433 
	C476.760010,515.221191 474.666504,515.205811 472.393188,515.100037 
	C465.253937,514.767944 464.652710,514.037476 465.209808,506.838196 
	C465.363098,504.857178 465.494568,502.873047 465.568695,500.887817 
	C465.637146,499.055176 465.143494,497.575409 462.131256,497.371002 
z"/>
<path fill="#000000" opacity="1.000000" stroke="none" 
	d="
M283.980896,446.679565 
	C282.001404,451.390778 278.506042,452.553314 274.113037,452.431122 
	C269.717438,452.308929 266.668243,453.728363 265.922211,458.896851 
	C264.953979,465.604645 258.778992,470.282684 251.948776,470.283234 
	C249.782822,470.283417 247.615585,470.237946 245.451157,470.296021 
	C240.588013,470.426544 236.090256,471.198639 234.339081,464.213531 
	C233.186401,459.615723 226.974808,457.718079 224.992416,452.815887 
	C223.821503,449.920349 223.031937,447.669403 228.010986,447.404205 
	C224.882889,445.169037 222.237762,443.484314 219.835419,441.504913 
	C217.419250,439.514038 216.040634,436.912415 216.822754,433.081238 
	C204.726883,431.222626 205.853455,442.618744 200.890213,448.866364 
	C197.691010,443.453583 198.331207,436.586090 193.141159,432.546417 
	C186.640060,436.248199 189.025330,443.746155 186.422318,449.256378 
	C184.559082,446.755920 184.559082,446.755920 186.204453,441.171082 
	C181.127441,439.611481 182.371231,435.619904 183.236053,432.253357 
	C183.796646,430.071106 184.187195,428.328583 183.290726,426.099548 
	C181.938477,422.737274 182.555862,419.187225 183.669540,415.816864 
	C190.340424,395.628479 203.799484,382.657806 224.455994,377.088623 
	C228.438187,376.014984 231.516541,378.151459 234.817947,378.339325 
	C236.296616,380.004059 234.273453,381.426239 235.051483,382.843079 
	C235.791245,383.807556 236.856827,383.949280 237.701569,383.322266 
	C240.662704,381.124298 242.993958,382.376404 245.195374,384.502502 
	C249.110199,388.283386 255.325211,390.064880 255.706512,396.962250 
	C255.776443,398.227203 257.485596,398.794495 258.974335,398.761841 
	C260.778717,397.191742 258.187805,395.327637 259.755554,392.988617 
	C263.967224,397.204346 266.329651,402.078613 267.703552,407.853638 
	C273.002899,407.885651 275.156189,410.888306 274.942535,416.006195 
	C274.799683,419.428375 277.702087,421.380280 279.606445,423.196869 
	C286.749146,430.010406 287.473389,437.671478 283.980896,446.679565 
M248.060944,417.962250 
	C247.047272,420.137909 245.357758,421.194336 242.940781,421.253998 
	C241.767029,421.282959 240.487396,421.545959 240.522614,423.140015 
	C240.557159,424.702850 241.501938,425.521637 243.038925,425.701294 
	C245.225342,425.956940 247.338928,425.837982 249.359375,424.812164 
	C250.685226,424.139038 252.188110,423.223755 253.576218,424.289001 
	C256.661011,426.656281 259.504852,423.532715 259.676453,422.399506 
	C260.434479,417.392151 264.216431,417.134766 268.178345,416.390717 
	C266.370117,412.957825 262.873932,409.719940 260.971039,412.027130 
	C258.077026,415.535950 252.789948,415.387970 251.527664,419.783356 
	C249.592712,419.874695 249.565018,418.158020 248.060944,417.962250 
M243.303146,413.614746 
	C244.805527,412.682587 244.353027,411.270874 243.210480,411.054993 
	C241.083511,410.653076 238.798676,410.870148 237.221222,413.120667 
	C239.122711,414.367035 240.949814,413.413727 243.303146,413.614746 
z"/>
<path fill="#000000" opacity="1.000000" stroke="none" 
	d="
M575.801208,404.900452 
	C579.930237,417.916107 583.781311,430.606842 587.632385,443.297546 
	C588.012329,443.329102 588.392334,443.360687 588.772278,443.392242 
	C591.054138,436.406342 593.348755,429.424530 595.613586,422.433105 
	C597.202698,417.527527 598.891663,412.647644 600.264587,407.681244 
	C601.075745,404.747070 602.692566,403.691315 605.646362,403.746460 
	C612.473145,403.874054 619.307800,403.923615 626.131653,403.732880 
	C629.769470,403.631195 631.405396,405.130798 632.465942,408.564148 
	C635.802795,419.366760 639.479858,430.064453 643.049805,440.794556 
	C643.353394,441.707031 643.839539,442.558716 644.780029,444.620789 
	C647.944031,433.636871 650.787231,423.775116 653.624146,413.911560 
	C654.221680,411.833832 654.829163,409.758057 655.372559,407.665894 
	C656.042908,405.084564 657.502319,403.722198 660.334717,403.761230 
	C666.662781,403.848602 672.993347,403.806061 679.322449,403.758362 
	C683.039490,403.730347 683.405273,405.470032 682.288086,408.558746 
	C675.496155,427.335815 668.737793,446.125610 662.119812,464.964386 
	C661.034790,468.052917 659.631653,469.570435 656.104309,469.443604 
	C648.784729,469.180542 641.444458,469.200195 634.122559,469.425140 
	C630.642822,469.532013 629.122681,468.167480 628.155640,464.930511 
	C625.489258,456.005310 622.519714,447.170197 619.628357,438.313110 
	C618.758179,435.647614 617.750977,433.026886 615.742798,430.247589 
	C612.951233,438.623108 610.015869,446.954041 607.400574,455.384308 
	C603.070679,469.341553 603.156860,469.448944 588.417847,469.321594 
	C583.120667,469.275848 576.945618,471.268860 572.753723,468.432495 
	C568.526245,465.572083 568.405273,459.019531 566.598328,454.048187 
	C561.141296,439.034607 555.801514,423.978363 550.398743,408.944977 
	C549.892090,407.535400 549.242065,406.172180 550.120667,403.931641 
	C558.446472,404.022552 566.981323,402.950134 575.801208,404.900452 
z"/>
<path fill="#000000" opacity="1.000000" stroke="none" 
	d="
M115.124992,427.049561 
	C116.886154,432.464813 118.530823,437.501556 120.175491,442.538269 
	C120.513077,442.579712 120.850662,442.621124 121.188248,442.662567 
	C122.305351,439.182343 123.504662,435.726013 124.522934,432.217102 
	C126.839409,424.234680 129.185822,416.257294 131.272629,408.213684 
	C132.116714,404.960175 133.590790,403.485992 137.122116,403.596924 
	C144.239517,403.820496 151.368851,403.663483 159.052353,403.663483 
	C157.040268,412.689423 153.542282,420.415649 150.861786,428.386658 
	C146.938553,440.053314 142.493622,451.544556 138.576691,463.213196 
	C137.322906,466.948212 135.572296,468.611694 131.473907,468.416077 
	C124.827835,468.098816 118.145439,468.103882 111.498375,468.408722 
	C107.453590,468.594238 105.538025,467.144531 104.410622,463.268768 
	C101.671402,453.852020 98.560623,444.542114 95.519363,435.215332 
	C94.869499,433.222321 94.491829,431.061401 92.498459,428.811493 
	C89.384125,438.166351 86.351135,447.054779 83.467842,455.991516 
	C79.492447,468.313202 79.540878,468.330811 66.813782,468.329285 
	C61.984497,468.328705 57.154163,468.255341 52.326378,468.337189 
	C50.018513,468.376312 48.645756,467.533295 47.847878,465.287292 
	C40.941540,445.846405 33.960224,426.432159 27.033482,406.998474 
	C26.769129,406.256836 26.832832,405.398285 26.653910,403.784882 
	C34.986580,403.784882 43.053654,403.672913 51.114357,403.850372 
	C53.667133,403.906586 53.768684,406.506775 54.313454,408.338806 
	C57.718384,419.789612 61.065331,431.257690 64.708008,443.661682 
	C67.722687,438.217285 68.665115,433.010681 70.406464,428.141998 
	C72.756645,421.571075 74.829025,414.884247 76.647774,408.146484 
	C77.622643,404.534973 79.554802,403.475739 83.090935,403.597839 
	C89.577820,403.821869 96.084129,403.832153 102.570091,403.595551 
	C106.132652,403.465607 108.046928,404.588898 109.048737,408.150665 
	C110.803474,414.389343 112.998131,420.504242 115.124992,427.049561 
z"/>
<path fill="#000000" opacity="1.000000" stroke="none" 
	d="
M388.468140,454.917480 
	C393.080780,465.492340 391.837372,467.693939 380.754639,469.312469 
	C368.100159,471.160583 361.338379,467.687805 355.335083,455.950531 
	C353.089752,451.560608 350.549438,447.951294 344.942841,448.057617 
	C342.479065,448.104340 341.225037,449.036163 341.246887,451.595581 
	C341.280975,455.589874 341.119751,459.588043 341.237976,463.578766 
	C341.335541,466.871857 340.224670,468.484192 336.644379,468.376190 
	C330.491058,468.190521 324.326569,468.243011 318.169800,468.358948 
	C315.132111,468.416168 313.984009,467.008148 313.987610,464.158264 
	C314.011536,445.348816 314.019226,426.539368 314.006165,407.729919 
	C314.004150,404.825745 315.259918,403.606750 318.253387,403.625763 
	C334.232635,403.727295 350.226624,403.294128 366.188416,403.839691 
	C381.255127,404.354675 390.705902,416.358643 387.307129,429.533325 
	C385.912292,434.940125 383.868500,437.194061 374.615204,443.353485 
	C378.691254,447.764252 379.111755,456.123749 388.468140,454.917480 
M357.882935,421.425201 
	C354.429321,419.794037 350.725189,420.648804 347.141083,420.301514 
	C342.739502,419.874939 340.991455,421.336334 341.077881,426.066833 
	C341.159058,430.509766 342.368988,432.549042 347.012909,432.057709 
	C349.629883,431.780914 352.292694,431.962616 354.932312,431.867279 
	C357.421570,431.777344 359.506470,430.832062 360.432404,428.378540 
	C361.401459,425.810638 360.943909,423.498291 357.882935,421.425201 
z"/>
<path fill="#000000" opacity="1.000000" stroke="none" 
	d="
M526.171875,413.861450 
	C543.209106,435.711060 532.099365,463.771973 505.227692,467.427063 
	C490.329498,469.453522 475.330841,467.887726 460.384155,468.295258 
	C457.814178,468.365295 456.812195,467.009186 456.814423,464.599548 
	C456.832153,445.463898 456.833710,426.328217 456.858521,407.192566 
	C456.860870,405.375549 457.406921,403.703552 459.581146,403.767853 
	C476.667297,404.273224 493.858948,401.919098 510.826141,405.268188 
	C516.596863,406.407227 521.701538,409.351013 526.171875,413.861450 
M503.349915,445.923004 
	C507.897583,441.413055 508.383240,436.029999 506.432098,430.305817 
	C504.633911,425.030182 500.069092,423.308105 495.152863,422.601257 
	C492.225739,422.180389 489.194946,422.485291 486.210907,422.453491 
	C484.180542,422.431824 483.150879,423.365112 483.152985,425.453674 
	C483.159668,432.091125 483.123077,438.728546 483.120178,445.365997 
	C483.119385,447.226135 483.755676,448.790710 485.878571,448.758545 
	C491.597595,448.671783 497.554474,450.134094 503.349915,445.923004 
z"/>
<path fill="#000000" opacity="1.000000" stroke="none" 
	d="
M721.112061,418.526733 
	C723.668213,411.745453 728.604187,407.816132 734.736328,405.639526 
	C749.536987,400.385864 764.336975,400.177704 778.893372,406.780060 
	C779.498596,407.054565 780.088379,407.368530 780.665466,407.698883 
	C789.375671,412.684692 789.515991,414.495209 781.677063,420.493866 
	C780.619568,421.303070 779.512085,422.067322 778.558105,422.987579 
	C776.061584,425.395935 773.877502,425.729218 770.735596,423.493927 
	C765.544739,419.801056 759.388306,418.864136 753.091980,419.525208 
	C750.838623,419.761871 748.440918,420.148499 746.772034,422.876892 
	C750.482300,426.790070 755.579102,426.117340 760.069214,426.553192 
	C767.043884,427.230255 773.922913,427.978424 780.521729,430.522430 
	C788.058228,433.427948 792.739990,438.516388 793.018799,446.839447 
	C793.279724,454.628174 789.858276,460.635712 783.400940,464.896088 
	C769.247864,474.233826 739.475891,473.586060 725.646423,463.660950 
	C724.568787,462.887543 723.570068,461.997803 722.576355,461.115143 
	C719.460632,458.347717 718.845398,455.707184 723.000977,453.309845 
	C723.717957,452.896240 724.435303,452.422668 725.013916,451.839386 
	C730.253357,446.556702 735.071472,445.262543 742.150024,450.065918 
	C747.932007,453.989502 755.582520,454.729767 762.887512,452.775177 
	C764.368286,452.378906 765.806946,452.025452 766.364197,449.957977 
	C763.883850,446.493744 759.830994,446.766541 756.215210,446.400269 
	C748.590027,445.627808 740.991333,444.735809 733.718262,442.245667 
	C722.438293,438.383636 718.179810,430.430298 721.112061,418.526733 
z"/>
<path fill="#000000" opacity="1.000000" stroke="none" 
	d="
M824.000000,403.764221 
	C833.663025,403.766663 842.828186,403.884705 851.988037,403.715912 
	C855.832764,403.645050 857.349426,404.977203 857.255798,408.932861 
	C856.874268,425.056641 859.169312,422.040710 844.258972,422.332123 
	C838.929749,422.436249 833.596741,422.335602 828.265747,422.365936 
	C826.425171,422.376434 824.378784,422.240265 824.295288,424.943115 
	C824.204773,427.872253 826.324707,427.976990 828.403381,427.986633 
	C835.067200,428.017639 841.732727,428.097137 848.394592,427.983002 
	C851.945496,427.922211 853.470947,429.182861 853.385925,432.952911 
	C853.093018,445.946350 854.855347,444.111084 842.338928,444.266571 
	C837.508301,444.326569 832.676270,444.293396 827.844971,444.276001 
	C825.778748,444.268555 824.265503,444.762909 824.177612,447.266144 
	C824.083740,449.939148 825.468689,450.739532 827.877258,450.730560 
	C836.207031,450.699554 844.539368,450.850647 852.866089,450.691010 
	C856.497437,450.621429 857.819214,452.004303 858.009644,455.615021 
	C858.734375,469.359558 858.829163,469.356873 845.426758,469.360107 
	C831.432312,469.363495 817.435852,469.229492 803.444641,469.441986 
	C799.172302,469.506866 797.575378,468.287018 797.625427,463.807526 
	C797.828186,445.650421 797.819763,427.488220 797.611816,409.331085 
	C797.559998,404.805695 799.300415,403.550842 803.510254,403.706390 
	C810.165100,403.952301 816.835938,403.766815 824.000000,403.764221 
z"/>
<path fill="#000000" opacity="1.000000" stroke="none" 
	d="
M215.168030,373.122162 
	C192.719650,381.394836 179.011215,397.088898 173.852402,419.877380 
	C170.532639,434.542084 173.345551,448.612213 180.331161,461.882050 
	C181.550995,464.199219 183.511078,466.160522 183.922714,468.878876 
	C177.218323,472.369568 172.081467,470.847656 168.993210,464.339478 
	C148.716873,421.609192 171.850174,370.282501 220.777527,360.109772 
	C262.727478,351.387726 302.643585,380.333160 308.066040,423.064606 
	C309.824707,436.923431 308.216919,450.644623 301.879028,463.492035 
	C298.287415,470.772491 294.826263,472.200317 286.823212,469.152466 
	C286.448792,467.105560 288.005127,465.788940 288.867371,464.274841 
	C301.387207,442.289764 301.135742,420.167297 287.853516,398.964539 
	C274.720154,377.999420 254.890274,368.780701 230.172302,370.035614 
	C225.122528,370.291992 220.332321,371.593567 215.168030,373.122162 
z"/>
<path fill="#000000" opacity="1.000000" stroke="none" 
	d="
M395.699707,443.999939 
	C395.705139,432.006104 395.846344,420.509857 395.645142,409.019653 
	C395.572388,404.866730 397.043213,403.395294 401.148224,403.598358 
	C406.465668,403.861420 411.819489,403.895477 417.132233,403.588409 
	C421.457245,403.338440 422.479889,405.179230 422.411285,409.147156 
	C422.218506,420.304260 422.463806,431.468536 422.314697,442.626984 
	C422.266174,446.257721 423.473419,447.751892 427.200684,447.660492 
	C434.025726,447.493134 440.860168,447.737885 447.687286,447.616913 
	C450.717621,447.563263 451.927063,448.837830 451.870636,451.741669 
	C451.783325,456.228882 451.762695,460.717560 451.734772,465.205719 
	C451.719971,467.589325 450.378510,468.331512 448.199585,468.327789 
	C432.041718,468.300232 415.883606,468.277191 399.725891,468.333862 
	C396.618652,468.344727 395.689484,466.792877 395.712219,463.989227 
	C395.764862,457.493225 395.710876,450.996429 395.699707,443.999939 
z"/>
<path fill="#000000" opacity="1.000000" stroke="none" 
	d="
M686.695312,412.076202 
	C686.750488,403.769745 686.750488,403.769043 694.759216,403.775482 
	C699.583557,403.779388 704.409790,403.867798 709.231628,403.761536 
	C712.292725,403.694092 713.942505,404.825317 713.938049,408.049561 
	C713.911743,427.180115 713.901062,446.310638 713.920166,465.441193 
	C713.923218,468.459900 712.467468,469.466064 709.565369,469.398529 
	C703.746094,469.263062 697.912598,469.167328 692.101685,469.427399 
	C687.968262,469.612396 686.606262,468.067413 686.644226,463.968140 
	C686.802734,446.834717 686.701355,429.698914 686.695312,412.076202 
z"/>
<path fill="#000000" opacity="1.000000" stroke="none" 
	d="
M633.715210,544.149170 
	C619.667053,547.552246 606.847229,544.081970 594.339050,539.196472 
	C576.106445,532.075134 557.718262,531.892212 539.015381,536.854492 
	C536.717102,537.464172 534.335327,538.480530 531.789124,537.908813 
	C531.652832,535.642944 533.288940,535.871582 534.447021,535.533386 
	C556.960327,528.959045 579.101135,529.528015 600.874146,538.761292 
	C614.032776,544.341492 627.380310,544.570984 640.745911,539.394531 
	C648.861328,536.251404 657.121094,533.955750 666.454895,535.126404 
	C665.922119,530.504761 666.610229,526.699158 663.915100,522.566345 
	C659.899475,516.408325 659.771973,508.700470 658.809143,501.501160 
	C658.393982,498.396973 661.308472,497.601776 663.701477,496.725555 
	C669.767761,494.504395 669.770691,494.474518 667.372925,488.702759 
	C666.286926,486.088715 665.075623,483.524963 664.049011,480.888611 
	C663.409546,479.246552 661.969055,477.474335 663.374817,475.749878 
	C664.783264,474.022217 666.779297,475.044495 668.525757,475.396973 
	C679.285156,477.568451 689.958496,480.749146 700.820862,481.640961 
	C709.301941,482.337219 712.430969,486.195129 714.508850,493.565857 
	C717.283997,503.409576 723.464783,511.733612 728.294495,520.653748 
	C729.611328,523.085815 731.243164,525.450439 731.060852,528.396362 
	C728.015686,529.997864 725.285767,529.068787 722.523132,528.586121 
	C714.654785,527.211182 713.917969,527.790527 712.934998,535.798645 
	C712.897949,536.100159 713.087463,536.429443 713.284546,537.172302 
	C720.318359,538.876038 727.803772,536.250305 735.477722,537.992920 
	C734.050232,540.456787 732.087585,540.061584 730.423584,540.152344 
	C726.766174,540.351868 723.071106,540.157104 719.446838,540.588745 
	C715.565613,541.051025 712.555054,542.811890 714.020996,547.526672 
	C715.371826,551.871338 710.975159,551.403015 709.414185,553.628723 
	C707.835388,552.175659 707.311829,549.255554 704.454224,550.527954 
	C703.613770,547.753479 705.868408,545.755920 704.961121,542.249695 
	C692.212769,542.678040 680.056946,539.216309 669.405762,531.151733 
	C667.450745,536.329895 673.961914,536.670349 673.412537,540.433960 
	C672.293762,541.496826 671.007935,541.593506 670.096985,540.816162 
	C663.178711,534.912781 655.738708,537.251831 648.365173,539.399536 
	C643.574707,540.794922 638.874512,542.500183 633.715210,544.149170 
M691.009155,482.664368 
	C682.978271,481.403442 675.171082,478.577911 666.539185,478.477325 
	C666.806580,479.879974 666.822327,480.555237 667.063049,481.137573 
	C671.131836,490.981750 675.259766,500.798157 677.892761,511.166718 
	C678.468689,513.434631 679.473328,515.837708 681.804749,516.715393 
	C689.560608,519.635315 697.650085,520.334595 705.884766,520.429688 
	C705.349426,514.777832 701.274902,510.223114 703.952759,503.921082 
	C708.078308,507.825073 708.880249,512.344971 709.999634,516.528625 
	C712.015564,524.062683 719.010559,528.043091 727.138428,525.813782 
	C727.723572,524.358276 726.806458,523.236877 726.157837,522.139160 
	C719.801086,511.380859 713.475708,500.612671 709.930603,488.498718 
	C709.231689,486.110718 707.597534,485.189667 705.134827,484.920105 
	C700.679199,484.432373 696.261536,483.598114 691.009155,482.664368 
M703.356384,530.988586 
	C705.177856,527.987427 703.986633,526.533813 700.892334,525.660095 
	C695.302124,524.081665 689.834229,522.035400 684.198730,520.662659 
	C679.037537,519.405396 676.406006,516.176453 674.801941,511.403168 
	C673.241821,506.760956 672.455200,501.810272 669.949890,497.162781 
	C666.718933,498.746246 661.584961,498.437378 661.628418,501.990997 
	C661.711792,508.808319 661.580078,516.739075 666.717224,521.715698 
	C672.180115,527.007935 679.365784,530.521790 685.701965,534.747314 
	C687.957642,533.076111 688.735229,529.763000 691.608093,530.808350 
	C695.314697,532.157104 692.110352,535.488586 692.962891,537.679871 
	C697.500366,538.498413 698.997192,537.577271 703.356384,530.988586 
M706.758118,539.029663 
	C711.150513,532.757751 710.428528,526.991211 704.922424,523.796265 
	C709.440674,529.894897 703.782959,534.078003 701.664124,538.862488 
	C703.281372,539.885986 704.730225,539.699646 706.758118,539.029663 
z"/>
<path fill="#000000" opacity="1.000000" stroke="none" 
	d="
M413.446289,515.834839 
	C409.562927,514.711487 407.558441,512.392273 408.193695,508.750305 
	C408.810486,505.214264 411.290985,503.440094 414.987091,503.464447 
	C419.141663,503.491821 422.057098,505.902405 422.129303,509.482666 
	C422.208832,513.425781 419.507874,515.526062 413.446289,515.834839 
z"/>
<path fill="#000000" opacity="1.000000" stroke="none" 
	d="
M567.990906,508.848267 
	C564.816101,508.532532 564.352722,506.685425 565.002686,504.525208 
	C565.713074,502.163910 567.910583,502.779572 569.650146,502.757416 
	C571.577881,502.732880 573.755981,503.231995 573.842407,505.390472 
	C573.991394,509.111511 570.689941,508.403503 567.990906,508.848267 
z"/>
<path fill="#000000" opacity="1.000000" stroke="none" 
	d="
M516.847412,506.604095 
	C517.602661,508.857391 520.058533,511.085083 516.811157,512.661499 
	C515.463928,513.315491 512.909912,513.199097 513.145691,510.982849 
	C513.332153,509.229950 512.395081,505.465210 516.847412,506.604095 
z"/>
</svg>